<?xml version="1.0" standalone="no"?>
<!DOCTYPE svg PUBLIC "-//W3C//DTD SVG 20010904//EN"
 "http://www.w3.org/TR/2001/REC-SVG-20010904/DTD/svg10.dtd">
<svg version="1.0" xmlns="http://www.w3.org/2000/svg"
 width="511.000000pt" height="511.000000pt" viewBox="0 0 511.000000 511.000000"
 preserveAspectRatio="xMidYMid meet">
<metadata>
Created by potrace 1.14, written by Peter Selinger 2001-2017
</metadata>
<g transform="translate(0.000000,511.000000) scale(0.100000,-0.100000)"
fill="#000000" stroke="none">
<path d="M1605 4425 c-511 -283 -934 -514 -940 -515 -10 0 -618 -1786 -630
-1850 -6 -34 -5 -36 85 -105 50 -38 99 -76 108 -83 129 -99 862 -648 989 -739
92 -67 225 -164 294 -215 479 -353 625 -462 634 -473 6 -6 93 -73 195 -149
144 -107 191 -136 210 -133 19 2 693 488 940 676 19 15 94 68 165 119 168 119
657 468 670 479 10 8 410 294 451 323 12 8 68 49 125 90 57 41 116 83 132 93
15 9 30 24 34 33 3 8 -13 59 -35 112 -23 53 -74 192 -113 307 -39 116 -126
374 -194 575 -68 201 -168 495 -222 653 l-99 288 -924 515 c-508 283 -928 514
-934 513 -6 0 -429 -232 -941 -514z m1482 -74 c285 -158 541 -301 568 -316 28
-15 84 -47 125 -70 41 -23 100 -56 130 -73 30 -17 107 -59 170 -95 l115 -64
282 -829 c155 -456 282 -834 282 -840 1 -6 -28 -31 -63 -55 -35 -24 -171 -121
-302 -215 -424 -303 -618 -442 -652 -466 -18 -13 -52 -37 -75 -54 -159 -119
-1110 -794 -1117 -794 -7 0 -2097 1534 -2206 1619 l-21 17 267 787 c147 433
270 791 274 795 15 14 1681 941 1693 942 7 0 246 -130 530 -289z"/>
<path d="M2630 2580 l0 -1739 113 79 c61 43 144 101 182 129 39 27 232 165
430 305 198 140 365 259 370 264 6 5 80 57 165 116 85 59 205 143 265 187 61
44 158 114 218 155 59 41 107 76 107 79 0 2 -5 16 -11 32 -6 15 -42 132 -80
258 -48 160 -76 237 -92 252 -12 12 -68 45 -125 73 -72 35 -101 54 -96 62 4 7
35 47 68 88 33 41 63 80 67 85 4 6 -3 49 -15 95 -36 130 -127 422 -141 450 -8
14 -38 38 -72 54 -32 16 -175 92 -318 169 -143 77 -344 184 -446 237 -102 54
-272 146 -377 204 -106 58 -196 106 -202 106 -7 0 -10 -582 -10 -1740z m714
664 c33 -20 96 -59 139 -87 l77 -50 0 -58 0 -59 -145 0 -145 0 0 145 c0 80 3
145 6 145 4 0 34 -16 68 -36z m375 -877 c-2 -2 -94 -68 -204 -147 -110 -79
-205 -147 -212 -152 -9 -7 -12 28 -11 146 l0 156 216 0 c118 0 213 -2 211 -3z"/>
<path d="M2305 4227 c-377 -195 -1223 -659 -1247 -685 -19 -20 -44 -90 -103
-287 -108 -364 -227 -752 -287 -935 -48 -148 -50 -155 -32 -167 11 -7 177
-124 369 -262 l350 -249 3 364 2 364 230 0 230 0 0 -534 0 -534 82 -58 c46
-32 119 -83 163 -113 44 -30 150 -102 235 -161 85 -58 161 -110 168 -114 9 -6
12 342 12 1723 0 952 -3 1731 -7 1731 -5 -1 -80 -38 -168 -83z m-485 -1107 l0
-130 -135 0 -135 0 0 50 0 49 68 41 c37 23 94 59 127 80 33 21 63 39 68 39 4
1 7 -57 7 -129z"/>
</g>
</svg>
